# xmcd
#
# Track frame offsets: 
#        150
#        11794
#        25100
#        35626
#        53202
#        67751
#        83784
#        97595
#        112434
#        124396
#        139379
#        155598
#        168133
#        186838
#        203485
#        217587
#        231182
#
# Disc length: 3304 seconds
#
# Revision: 1
# Processed by: cddbd v1.5.2PL0 Copyright (c) Steve Scherf et al.
# Submitted via: ExactAudioCopy v0.99pb4
#
DISCID=e10ce611
DTITLE=Оркестр золотого света - Паганини (Мировая классика в современн
DTITLE=ой обработке)
DYEAR=2001
DGENRE=Classical
TTITLE0=La campanella. Рондо
TTITLE1=Grand sonata № 1 in allegro
TTITLE2=Концерт № 4 Алегро
TTITLE3=Grand sonata № 2 Op 39 Romanse
TTITLE4=Каприччио № 24 in A minor
TTITLE5=Sonate in C
TTITLE6=La campanella. Allegro
TTITLE7=Allegretto scberzando
TTITLE8=Каприччио №9
TTITLE9=Концерт №5 Анданте
TTITLE10=Каприччио №4
TTITLE11=Концерт №1 Рондо
TTITLE12=Каприччио №7
TTITLE13=Каприччио №14
TTITLE14=Концерт №1 Аллегро
TTITLE15=Соната in E major
TTITLE16=Танец ведьм. Анданте
EXTD=
EXTT0=
EXTT1=
EXTT2=
EXTT3=
EXTT4=
EXTT5=
EXTT6=
EXTT7=
EXTT8=
EXTT9=
EXTT10=
EXTT11=
EXTT12=
EXTT13=
EXTT14=
EXTT15=
EXTT16=
PLAYORDER=
